<?xml version="1.0" standalone="no"?>
<!DOCTYPE svg PUBLIC "-//W3C//DTD SVG 20010904//EN"
 "http://www.w3.org/TR/2001/REC-SVG-20010904/DTD/svg10.dtd">
<svg version="1.0" xmlns="http://www.w3.org/2000/svg"
 width="684.000000pt" height="684.000000pt" viewBox="0 0 684.000000 684.000000"
 preserveAspectRatio="xMidYMid meet">
<metadata>
Created by potrace 1.11, written by Peter Selinger 2001-2013
</metadata>
<g transform="translate(0.000000,684.000000) scale(0.100000,-0.100000)"
fill="#000000" stroke="none">
<path d="M3190 6730 c-148 -12 -285 -41 -420 -92 -68 -25 -108 -33 -200 -39
-242 -15 -397 -75 -515 -197 -56 -59 -73 -87 -105 -167 -13 -33 -42 -85 -65
-115 -89 -117 -139 -235 -149 -350 -3 -36 -16 -98 -28 -138 -22 -69 -26 -75
-88 -121 -36 -27 -75 -57 -87 -67 -12 -11 -37 -30 -55 -44 -45 -33 -326 -314
-369 -369 -19 -24 -55 -69 -80 -100 -25 -31 -54 -71 -64 -88 -11 -18 -23 -33
-27 -33 -4 0 -8 -4 -8 -10 0 -5 -15 -31 -34 -57 -159 -222 -323 -602 -406
-938 -53 -219 -71 -364 -77 -635 -8 -354 22 -590 116 -915 50 -176 162 -447
234 -570 16 -27 43 -74 59 -104 37 -69 157 -248 192 -288 6 -7 22 -27 36 -44
190 -243 413 -452 675 -631 129 -88 203 -131 340 -197 273 -133 488 -207 746
-260 541 -111 1146 -63 1639 130 41 16 78 29 83 29 13 0 291 134 305 147 7 7
17 13 22 13 16 0 217 128 316 201 178 130 360 298 487 449 40 47 74 87 77 90
40 40 172 229 244 350 347 581 488 1286 392 1958 -92 638 -397 1244 -857 1702
-70 70 -179 166 -267 237 -15 12 -30 43 -43 92 -60 224 -236 476 -444 637 -83
64 -290 144 -374 144 -18 0 -45 18 -86 56 -97 91 -326 235 -395 249 -8 2 -33
10 -55 19 -59 23 -224 53 -355 65 -125 12 -166 12 -310 1z m392 -80 c377 -55
618 -172 764 -371 38 -52 54 -61 54 -30 0 29 14 33 77 21 200 -36 413 -219
566 -485 109 -190 157 -354 156 -534 0 -126 -5 -124 -37 10 -11 47 -30 107
-42 133 -24 50 -38 58 -20 10 6 -16 23 -74 38 -129 45 -172 35 -425 -25 -608
-20 -63 -32 -50 -40 41 -6 79 -23 98 -23 28 0 -49 -13 -66 -29 -39 -13 23 -14
2 -1 -31 6 -17 6 -26 0 -26 -6 0 -10 5 -10 12 0 6 -2 9 -5 6 -3 -3 -1 -18 5
-33 16 -42 4 -42 -21 -1 -26 44 -37 41 -14 -4 21 -41 13 -49 -14 -14 -11 15
-21 25 -21 23 0 -2 9 -33 20 -67 28 -89 26 -161 -5 -222 -33 -66 -32 -74 4
-18 42 65 111 98 208 98 114 0 168 -40 199 -148 15 -51 16 -78 5 -253 -13
-214 -26 -283 -71 -368 -38 -70 -242 -335 -275 -357 -37 -24 -139 -31 -169
-11 -29 19 -45 63 -35 97 6 23 7 22 9 -10 1 -30 2 -32 10 -13 19 47 31 187 29
358 -2 206 -2 211 7 284 7 66 -2 101 -68 245 -50 110 -60 148 -19 75 36 -64
36 -38 -1 32 -18 35 -33 69 -33 74 0 6 -4 17 -9 25 -5 8 4 4 20 -11 16 -14 38
-31 49 -39 19 -14 19 -14 0 10 -43 51 -51 65 -36 55 11 -6 13 -4 6 11 -4 10
-8 30 -9 44 -1 20 4 25 24 24 14 -1 34 -4 45 -8 14 -5 11 0 -10 18 -16 14 -39
26 -51 26 -37 0 -36 14 3 27 l38 12 -37 -6 c-25 -3 -38 -1 -38 6 0 6 8 11 17
11 23 0 103 40 103 51 0 6 -8 6 -19 -1 -33 -17 -111 -12 -147 11 -37 22 -82
76 -109 128 l-17 34 27 -7 c50 -13 150 -8 185 8 19 9 26 14 15 10 -11 -3 -38
-8 -60 -10 -33 -3 -36 -3 -15 5 14 5 37 12 51 15 15 3 37 15 50 27 21 18 21
20 4 14 -90 -32 -168 -28 -253 12 -29 14 -51 27 -49 30 3 2 30 -3 61 -12 30
-9 85 -16 121 -16 57 0 73 4 116 32 55 35 60 50 7 23 -50 -26 -182 -31 -249
-9 -90 30 -245 204 -293 330 -10 26 0 15 56 -65 67 -96 165 -184 228 -205 59
-20 125 -17 180 8 l35 15 -40 -4 -40 -5 39 20 c42 22 68 42 63 47 -2 2 -27 -5
-55 -16 -67 -26 -153 -26 -210 0 -152 69 -341 379 -342 561 0 25 8 70 18 100
28 79 16 87 -32 21 -45 -60 -95 -107 -133 -125 -13 -6 -23 -14 -23 -18 0 -13
62 9 85 31 l21 20 13 -92 c23 -178 80 -350 163 -492 23 -38 51 -108 64 -155
41 -146 75 -242 121 -340 36 -76 59 -108 117 -165 39 -39 81 -79 93 -88 59
-45 80 -295 35 -408 -12 -30 -22 -66 -22 -80 0 -28 25 -70 42 -70 7 0 6 5 -2
14 -20 25 -9 61 20 61 24 -1 25 -3 34 -95 5 -59 4 -139 -2 -210 -22 -242 -93
-360 -214 -360 -56 0 -102 29 -128 80 -35 69 -121 97 -197 65 -48 -20 -71 -41
-94 -87 -77 -151 26 -308 202 -308 18 0 63 10 100 22 59 19 71 20 99 8 21 -9
38 -26 46 -46 19 -45 18 -155 -1 -180 -14 -19 -14 -19 -15 1 -6 104 -17 145
-40 145 -27 0 -58 -48 -115 -173 -52 -117 -91 -162 -129 -151 -11 3 -41 18
-64 33 -24 14 -60 36 -80 48 -28 17 -52 23 -102 23 -79 0 -114 -19 -159 -84
-47 -68 -96 -85 -137 -48 -10 10 -28 24 -39 31 -20 12 -20 12 0 6 54 -19 87
-26 93 -20 4 4 -1 11 -11 16 -9 6 -17 16 -17 24 0 8 -4 16 -9 19 -5 4 -7 -3
-4 -14 6 -22 1 -24 -25 -11 -25 13 -76 34 -84 35 -3 1 -9 4 -13 7 -3 4 -15 4
-26 2 -16 -5 -18 -8 -7 -15 8 -5 2 -6 -17 -2 -27 7 -29 6 -16 -9 22 -27 -4
-29 -142 -12 -157 19 -218 19 -263 0 -32 -13 -41 -13 -87 2 -45 15 -66 15
-186 5 -159 -14 -231 -15 -231 -3 0 9 206 112 264 131 25 8 56 10 90 5 28 -4
71 -6 96 -4 124 8 176 2 285 -34 60 -20 110 -35 112 -33 2 1 -57 26 -130 55
-147 58 -167 72 -167 111 0 42 28 58 140 80 117 24 132 30 178 73 39 38 45 66
7 41 -23 -15 -28 -15 -72 0 -71 24 -137 20 -226 -14 -90 -34 -118 -38 -67 -9
19 11 26 17 15 14 -101 -34 -188 -32 -256 8 -24 14 -70 30 -102 37 -70 14 -97
37 -97 84 0 41 37 98 71 110 64 22 103 -20 81 -90 -8 -28 -7 -37 6 -50 15 -16
102 -57 108 -52 1 2 -4 28 -13 58 -12 45 -14 105 -9 340 6 327 19 469 41 486
12 9 5 12 -37 12 -47 0 -55 3 -84 34 l-31 35 -6 -68 c-11 -131 -53 -178 -169
-188 -14 -2 -8 -36 12 -66 28 -42 27 -112 -3 -156 -33 -50 -74 -57 -202 -35
-117 20 -136 15 -154 -35 -22 -63 -5 -134 43 -187 31 -33 39 -36 98 -40 81 -5
113 10 163 78 20 27 47 53 60 56 97 24 153 -78 70 -128 -45 -26 -69 -78 -62
-137 5 -41 4 -44 -9 -26 -17 22 -18 78 -3 107 16 30 3 33 -17 3 -43 -65 0
-133 95 -154 65 -14 114 -38 108 -54 -6 -18 -47 -9 -83 18 -42 32 -57 31 -84
-2 -18 -24 -21 -36 -15 -83 6 -51 4 -58 -24 -94 -33 -41 -74 -139 -69 -165 2
-12 12 -7 43 19 44 39 79 60 96 60 18 0 -17 -35 -103 -103 -43 -34 -78 -65
-78 -70 0 -4 15 3 33 16 50 37 66 43 28 10 -36 -31 -36 -53 1 -53 11 0 36 -9
55 -21 33 -21 34 -23 27 -68 -9 -53 -9 -60 -4 -121 l3 -45 6 50 c4 32 10 49
19 48 8 -2 12 12 12 47 0 28 4 50 9 50 5 0 27 -6 49 -14 66 -24 182 -37 237
-27 28 5 41 9 29 10 -11 0 -41 8 -67 17 -34 11 -47 21 -47 35 0 18 8 19 113
17 61 -2 145 1 186 6 50 6 72 6 68 -1 -4 -6 24 -12 76 -15 116 -8 207 -51 207
-100 0 -26 7 -23 54 25 85 88 197 74 226 -27 25 -89 -16 -203 -111 -309 -97
-109 -224 -181 -367 -207 -41 -8 -38 -9 28 -6 81 4 172 35 242 81 21 14 42 25
48 25 22 0 8 -54 -40 -147 -27 -54 -50 -99 -50 -101 0 -2 8 -1 18 2 9 2 31 7
49 11 l31 6 -15 -58 c-19 -73 -28 -90 -70 -132 -36 -35 -52 -36 -34 -3 20 38
11 34 -34 -15 -47 -51 -55 -47 -30 15 15 36 13 35 -40 -23 l-56 -60 16 40 16
40 -40 -45 c-42 -49 -60 -49 -43 -1 6 17 10 31 8 31 -2 0 -21 -26 -42 -57 -26
-40 -39 -53 -42 -41 -2 9 2 27 8 40 11 22 10 22 -11 -2 -12 -14 -27 -34 -35
-44 -18 -27 -30 -12 -16 19 17 38 8 30 -24 -20 -15 -25 -32 -45 -37 -45 -5 0
-7 18 -4 41 l5 40 -28 -43 c-49 -74 -60 -85 -69 -70 -6 10 -12 7 -25 -12 -22
-35 -34 -33 -38 6 l-3 32 -38 -60 c-37 -57 -38 -58 -34 -24 l4 35 -16 -25 c-9
-13 -24 -33 -34 -44 -18 -21 -18 -20 -15 21 2 24 3 43 2 43 -1 0 -18 -25 -38
-55 -39 -59 -52 -69 -43 -32 5 20 4 20 -6 3 -45 -71 -70 -84 -61 -34 5 30 2
28 -28 -22 -32 -53 -33 -54 -36 -26 -4 28 -4 28 -33 -23 -16 -28 -32 -51 -36
-51 -3 0 -3 19 0 41 6 47 4 45 -48 -31 -28 -42 -36 -48 -31 -27 4 15 5 27 2
27 -2 0 -18 -23 -36 -50 -35 -54 -56 -66 -46 -25 4 14 5 25 3 25 -2 0 -21 -25
-41 -55 -20 -30 -39 -55 -42 -55 -4 0 -4 19 0 42 l7 43 -41 -58 c-44 -61 -66
-75 -49 -31 16 43 5 37 -32 -18 -19 -28 -41 -54 -48 -56 -11 -4 -10 1 2 19 34
47 16 40 -24 -10 -22 -28 -45 -51 -49 -51 -5 0 -10 12 -12 28 l-3 27 -24 -39
c-14 -22 -27 -34 -29 -27 -3 8 -15 0 -33 -21 -22 -25 -30 -30 -37 -20 -7 11
-15 7 -32 -18 -26 -37 -35 -34 -20 6 9 24 2 20 -36 -23 -52 -60 -72 -68 -48
-20 14 28 9 25 -43 -25 -63 -63 -86 -74 -58 -30 17 26 16 26 -16 -5 l-34 -32
-61 42 c-97 68 -108 76 -103 82 3 3 34 11 70 19 l64 14 -75 1 c-70 1 -113 12
-94 24 5 2 34 8 64 12 70 10 163 40 206 68 27 18 37 35 54 92 111 371 268 836
329 969 60 133 142 198 209 166 l27 -13 -30 -7 c-124 -27 -174 -140 -340 -765
-68 -254 -125 -401 -174 -443 l-26 -23 40 4 c76 8 194 65 324 156 404 283 899
552 1191 647 125 40 202 100 237 182 15 35 9 59 -10 44 -7 -5 -46 -22 -87 -37
-94 -35 -205 -39 -295 -12 -77 24 -237 33 -302 18 -48 -12 -50 -11 -137 34
-48 25 -116 65 -150 90 -74 52 -218 200 -264 269 -17 27 -32 46 -32 42 0 -13
48 -101 83 -154 40 -59 32 -59 -22 0 -55 61 -114 158 -159 260 -58 132 -64
170 -16 89 42 -69 139 -179 150 -168 3 3 -17 52 -45 109 -47 96 -138 350 -159
446 -11 47 2 57 31 24 10 -10 38 -34 65 -52 44 -32 42 -28 -29 47 -88 92 -126
163 -182 338 -19 61 -37 119 -40 130 -3 11 -5 -20 -6 -69 -1 -76 17 -248 35
-325 5 -21 3 -23 -23 -17 -15 4 -51 18 -80 31 -61 28 -89 66 -183 254 -113
227 -129 283 -140 501 -5 91 -16 208 -24 260 -31 189 -20 236 57 234 66 -1 74
-7 93 -71 l18 -58 7 127 c7 134 48 378 63 378 5 0 6 -48 2 -115 -7 -113 8
-398 23 -438 6 -16 13 -5 31 53 27 84 92 179 147 213 58 36 99 47 182 47 l76
0 -35 21 c-54 32 -88 69 -101 106 -20 60 -5 96 76 182 41 44 77 91 80 105 3
14 7 37 10 50 5 26 19 33 132 65 40 12 75 26 79 33 5 8 2 9 -11 4 -43 -16
-193 -18 -287 -2 -116 19 -179 42 -276 103 -75 46 -87 64 -31 44 54 -19 53
-13 -6 40 -30 29 -54 54 -51 56 2 2 26 -7 53 -20 26 -13 59 -28 73 -31 22 -7
21 -5 -6 12 -66 42 -106 119 -120 228 -6 48 -13 65 -39 91 -30 30 -32 37 -28
80 3 27 11 55 18 63 21 25 24 72 10 135 -8 32 -12 61 -10 64 3 2 16 -1 30 -7
31 -14 31 -12 0 34 -33 49 -32 90 2 126 25 26 25 28 7 28 -32 0 -37 13 -12 32
21 16 21 18 4 18 -16 0 -17 2 -5 17 8 9 13 24 11 33 -2 11 8 22 28 30 24 10
38 29 64 86 68 146 115 197 233 255 70 34 286 99 330 99 8 0 -40 -27 -107 -61
-128 -64 -156 -88 -49 -43 233 98 462 166 616 184 111 13 354 3 515 -20z
m-2673 -3487 c0 -5 -6 -37 -13 -72 -10 -57 -15 -66 -39 -72 -33 -9 -40 1 -31
47 6 32 4 36 -12 32 -16 -3 -22 -23 -40 -123 -11 -66 -24 -137 -28 -157 -6
-32 -4 -38 10 -38 11 0 14 -5 10 -16 -3 -9 -6 -24 -6 -35 0 -17 -8 -19 -91
-19 -90 0 -91 0 -85 23 3 12 6 28 6 35 0 6 6 12 14 12 18 0 20 7 45 155 12 66
23 130 26 143 4 17 1 22 -14 22 -15 0 -21 -9 -26 -40 -6 -37 -9 -40 -40 -40
l-32 0 9 53 c18 109 -3 97 178 97 88 0 160 -3 159 -7z m231 -1 c0 -70 33 -378
41 -382 6 -4 9 -20 7 -36 l-3 -29 -87 -3 c-88 -3 -88 -3 -88 22 0 13 7 31 15
40 8 8 15 22 15 31 0 13 -9 16 -42 13 l-43 -3 3 -52 4 -53 -75 0 -74 0 6 33
c5 22 13 33 27 35 21 3 23 8 146 340 l19 52 65 0 c35 0 64 -3 64 -8z m314 -2
c17 -6 26 -6 26 0 0 6 16 10 35 10 39 0 39 2 21 -89 -11 -63 -13 -65 -41 -65
-28 0 -30 3 -28 37 2 31 -1 38 -22 43 -48 12 -61 -1 -74 -79 -7 -39 -19 -105
-27 -146 -15 -77 -11 -96 22 -89 20 3 38 64 23 74 -5 3 -9 16 -9 30 0 23 2 24
75 24 82 0 91 -8 56 -49 -13 -14 -22 -45 -26 -87 l-7 -64 -33 0 c-18 0 -35 5
-37 11 -3 9 -9 9 -25 0 -28 -14 -105 -14 -138 1 -14 6 -28 21 -30 32 -3 12 8
97 24 190 31 171 41 198 86 217 28 11 99 11 129 -1z m396 -7 c0 -10 5 -94 11
-188 8 -121 16 -173 25 -181 9 -8 12 -22 8 -43 l-6 -31 -87 0 -87 0 4 35 c3
21 10 35 18 35 8 0 14 9 14 20 0 17 -7 20 -44 20 -32 0 -46 -5 -50 -17 -4 -9
-3 -19 2 -22 5 -3 7 -21 5 -38 l-5 -33 -69 0 c-65 0 -69 1 -69 23 0 29 11 44
34 48 15 3 34 44 83 174 35 94 68 180 73 193 9 20 17 22 75 22 55 0 65 -3 65
-17z m3490 -2 c0 -29 -11 -51 -25 -51 -8 0 -19 -33 -30 -92 -9 -51 -22 -123
-29 -160 -11 -57 -11 -68 0 -68 15 0 18 -27 8 -54 -5 -13 -23 -16 -90 -16
l-84 0 0 31 c0 22 5 32 20 36 11 3 20 8 20 10 0 3 12 73 27 156 19 109 23 152
15 155 -13 4 -16 31 -6 56 5 13 23 16 90 16 76 0 84 -2 84 -19z m220 7 c0 -31
-14 -58 -29 -58 -13 0 -20 -26 -39 -138 -12 -75 -25 -147 -28 -159 -6 -20 -3
-23 25 -23 28 0 31 3 37 40 4 22 9 40 13 41 3 0 19 3 35 5 28 5 28 4 22 -28
-4 -18 -10 -54 -13 -80 l-6 -48 -139 0 c-124 0 -139 2 -134 16 3 9 6 24 6 35
0 10 7 19 15 19 16 0 17 1 45 160 11 63 23 125 25 138 4 15 1 22 -10 22 -16 0
-18 12 -9 48 6 21 11 22 95 22 65 0 89 -3 89 -12z m370 -3 c26 -13 30 -21 30
-55 0 -61 -50 -322 -66 -348 -22 -33 -54 -42 -155 -42 -76 0 -92 3 -109 20
-25 25 -25 14 6 184 37 203 40 214 77 236 41 25 173 28 217 5z m263 4 c16 -9
22 -9 25 0 2 6 17 11 33 11 25 0 29 -4 28 -27 0 -16 -6 -50 -13 -78 -10 -46
-13 -50 -41 -50 -29 0 -30 2 -27 37 3 33 0 38 -22 44 -49 12 -58 -4 -87 -158
-15 -78 -25 -146 -22 -150 2 -5 15 -8 28 -8 20 0 25 7 31 36 4 24 3 39 -6 44
-6 4 -10 16 -8 26 3 16 14 19 76 22 71 3 72 3 72 -23 0 -15 -6 -25 -14 -25
-10 0 -18 -22 -27 -75 -11 -73 -12 -75 -40 -75 -20 0 -29 5 -29 16 0 15 -2 15
-25 0 -38 -25 -128 -21 -160 7 l-27 22 27 150 c37 211 41 223 78 245 36 22
116 27 150 9z m-1447 -496 c8 -32 14 -73 14 -90 0 -32 -1 -33 -46 -33 -39 0
-45 3 -40 17 4 9 14 46 22 82 27 114 29 115 50 24z m-1036 -48 c14 -8 21 -14
15 -14 -5 0 -21 6 -35 14 -14 8 -20 14 -15 14 6 0 21 -6 35 -14z m1245 -136
c208 -35 262 -53 387 -135 40 -26 99 -62 132 -80 l58 -31 -48 -17 c-65 -22
-72 -21 -139 19 -68 41 -104 53 -114 36 -5 -8 -38 4 -107 39 -57 30 -122 55
-154 60 -50 8 -60 7 -110 -18 -30 -16 -104 -66 -165 -114 -161 -125 -239 -175
-314 -199 -72 -24 -94 -36 -85 -50 21 -35 137 18 295 134 214 158 309 217 345
217 18 0 68 -14 111 -31 144 -57 291 -156 384 -257 78 -85 95 -131 73 -201 -3
-9 -61 42 -157 136 -174 171 -184 176 -288 143 -81 -25 -176 -83 -284 -174
-89 -74 -177 -126 -215 -126 -11 0 -20 -4 -20 -10 0 -15 95 -12 162 5 33 9
144 46 246 83 236 84 284 88 355 29 25 -20 55 -53 67 -72 25 -40 101 -235 91
-235 -3 1 -19 19 -34 41 -15 22 -43 47 -61 54 -44 19 -80 6 -306 -103 -91 -43
-182 -85 -202 -91 -21 -7 -38 -15 -38 -17 0 -17 25 -46 50 -59 43 -22 73 -19
173 21 165 66 277 70 343 12 39 -35 69 -84 55 -92 -5 -3 -60 -28 -123 -55 -63
-27 -132 -59 -154 -70 -36 -20 -37 -21 -9 -15 53 12 60 10 57 -11 -6 -34 -47
-79 -93 -102 -63 -31 -187 -46 -263 -32 -115 20 -234 107 -280 203 -22 47 -20
69 9 104 34 40 31 45 -10 20 -28 -16 -48 -19 -88 -16 -107 9 -140 70 -76 143
l31 35 -44 -20 c-27 -12 -65 -20 -102 -20 -53 0 -61 3 -93 35 -32 32 -35 40
-30 76 3 22 17 64 31 93 14 29 26 56 26 59 0 20 -52 2 -94 -33 -54 -44 -105
-53 -138 -23 -17 15 -18 14 -18 -18 -1 -19 -11 -77 -24 -129 l-22 -95 -7 49
c-4 28 -4 79 -1 115 5 45 4 62 -4 57 -17 -10 -56 -141 -121 -396 -131 -522
-248 -837 -384 -1041 l-17 -26 77 -49 c77 -49 78 -49 45 -52 -26 -3 -50 7
-107 45 -41 26 -74 51 -74 55 -1 4 22 47 50 95 198 344 293 615 409 1163 81
382 111 440 283 546 116 72 202 136 353 261 137 114 160 130 212 149 44 16
132 11 307 -17z m1190 -38 c-6 -5 -66 -35 -135 -66 -69 -32 -215 -100 -324
-152 -110 -51 -205 -93 -212 -93 -7 0 -18 8 -23 19 -9 17 18 30 312 150 177
73 331 136 342 141 27 12 52 12 40 1z m-694 -61 c37 0 52 -6 73 -27 34 -33 32
-69 -3 -65 -27 3 -160 82 -161 96 0 4 10 6 23 2 12 -3 43 -6 68 -6z m-2762
-384 c51 -30 146 -75 226 -105 27 -10 26 -11 -20 -6 -57 6 -192 68 -245 114
-46 40 -31 39 39 -3z m2914 -409 c39 -30 107 -74 149 -99 l77 -45 -26 -39
c-193 -286 -580 -641 -886 -814 -60 -34 -76 -35 -58 -3 6 10 29 62 52 116 26
61 52 105 66 114 13 9 88 38 166 65 222 76 245 100 297 308 17 69 39 141 49
160 22 43 32 105 33 209 0 45 2 81 4 81 2 0 37 -24 77 -53z m-4172 -454 c-21
-43 -46 -87 -54 -97 -14 -19 -15 -19 -45 5 -17 13 -31 26 -31 29 -1 3 36 43
81 90 97 99 110 92 49 -27z m3479 -150 c0 -5 -16 -28 -35 -52 -49 -62 -149
-139 -247 -190 -246 -130 -300 -176 -388 -334 -58 -104 -101 -160 -107 -140
-2 6 8 31 23 54 56 89 74 140 74 212 0 79 15 120 60 165 39 39 170 104 340
168 133 50 234 97 245 114 7 12 35 14 35 3z m-1608 -749 c37 -25 68 -49 68
-53 0 -16 -78 3 -115 29 -61 41 -69 42 -114 8 -23 -17 -44 -28 -48 -25 -7 8
32 62 63 86 31 25 49 19 146 -45z"/>
<path d="M2978 6600 c-121 -21 -221 -61 -366 -147 -53 -32 -115 -66 -137 -75
-22 -9 -33 -17 -24 -17 32 -2 139 42 220 88 104 59 152 77 94 34 -91 -67 -154
-157 -250 -357 -36 -73 -76 -145 -91 -159 -45 -45 -133 -59 -206 -33 -46 16
-39 0 8 -20 42 -18 154 -18 219 0 69 18 156 63 282 148 122 80 218 128 319
158 67 20 68 20 19 14 -76 -9 -206 -55 -345 -123 -83 -42 -126 -58 -129 -50
-6 19 44 54 164 114 61 30 107 55 103 55 -3 0 -43 -14 -88 -31 -45 -17 -83
-29 -86 -26 -13 13 182 119 271 147 22 7 35 15 30 17 -6 2 -51 -10 -100 -27
-108 -37 -139 -39 -66 -4 51 23 141 49 251 72 30 7 36 10 19 11 -14 1 -61 -8
-104 -19 -91 -23 -85 -23 -85 -10 0 12 88 38 188 55 62 10 69 13 36 14 -23 0
-85 -10 -138 -24 -110 -29 -106 -28 -106 -16 0 20 173 64 295 74 35 3 34 4
-11 5 -63 2 -200 -23 -268 -48 -27 -11 -52 -17 -55 -15 -9 10 34 34 97 54 100
33 196 44 282 32 90 -12 103 -7 23 9 -38 8 -92 10 -155 6 -61 -4 -98 -3 -98 3
0 14 90 31 178 33 l77 1 -65 7 c-59 6 -54 7 45 8 95 1 188 -8 325 -33 65 -12
6 21 -78 44 -138 37 -371 52 -494 31z"/>
<path d="M3696 6245 c73 -7 194 -25 269 -39 164 -31 236 -34 130 -5 -130 34
-308 59 -421 58 l-109 -1 131 -13z"/>
<path d="M3062 6070 c-121 -43 -223 -119 -357 -267 -241 -263 -287 -298 -394
-291 -65 4 -65 4 -31 -10 46 -19 159 -10 220 16 65 28 126 86 265 251 159 190
239 262 336 304 49 22 24 20 -39 -3z"/>
<path d="M3241 5945 c-52 -14 -104 -24 -115 -23 -37 3 -138 -63 -216 -141 -46
-46 -117 -137 -178 -228 -102 -150 -140 -191 -207 -219 -43 -18 -118 -17 -170
1 -34 12 -37 12 -21 0 21 -16 102 -35 150 -35 45 0 119 23 155 50 17 12 85 92
150 178 227 299 328 376 562 427 57 12 60 13 24 14 -22 0 -82 -11 -134 -24z"/>
<path d="M3468 5923 c18 -2 45 -2 60 0 15 2 0 4 -33 4 -33 0 -45 -2 -27 -4z"/>
<path d="M3320 5901 c-136 -36 -257 -108 -350 -207 -31 -33 -102 -127 -158
-211 -132 -197 -164 -221 -288 -225 -88 -2 -56 -21 35 -21 129 0 179 39 337
261 121 171 193 253 266 308 57 41 154 85 233 103 27 6 32 9 15 9 -14 1 -54
-7 -90 -17z"/>
<path d="M3372 5715 c-141 -22 -220 -60 -303 -147 -46 -48 -86 -121 -187 -340
-22 -48 -60 -108 -84 -135 l-43 -47 44 34 c25 19 70 66 100 104 204 255 285
299 606 322 247 18 446 46 432 61 -3 2 -38 -3 -78 -11 -67 -14 -253 -36 -300
-36 -10 0 -19 4 -19 8 0 4 56 13 124 20 127 12 262 37 270 51 3 4 -32 0 -77
-10 -45 -10 -113 -21 -152 -24 -38 -3 -81 -8 -95 -11 -20 -3 -22 -2 -8 6 9 5
51 15 95 20 100 14 212 38 232 51 14 9 14 10 0 6 -22 -7 -167 -34 -219 -42
-86 -12 -29 8 87 30 109 21 240 61 230 71 -2 2 -39 -5 -83 -17 -43 -11 -113
-22 -154 -24 l-75 -5 84 15 c47 9 87 17 89 20 3 3 -46 6 -109 6 -117 1 -113
15 6 19 33 1 80 5 105 9 79 15 -426 10 -518 -4z"/>
<path d="M3908 5693 c7 -3 16 -2 19 1 4 3 -2 6 -13 5 -11 0 -14 -3 -6 -6z"/>
<path d="M4255 5104 c40 -59 55 -127 55 -245 0 -202 53 -367 143 -444 49 -42
145 -90 202 -101 l40 -7 -67 72 c-123 133 -176 231 -227 423 -50 187 -77 253
-130 311 -35 39 -45 33 -16 -9z"/>
<path d="M4350 4492 c21 -56 26 -117 10 -127 -5 -3 -22 0 -37 8 -63 32 -141
27 -91 -5 13 -8 33 -18 45 -22 12 -4 48 -27 79 -51 32 -25 62 -45 67 -45 18 0
-3 110 -34 185 -36 89 -67 134 -39 57z"/>
<path d="M3840 4414 c-195 -36 -311 -87 -448 -198 -104 -83 -145 -164 -106
-207 26 -28 10 -52 -30 -47 -41 5 -37 -8 16 -59 44 -42 96 -63 158 -63 64 0
64 12 3 73 -40 40 -43 47 -25 47 26 0 39 19 21 30 -7 5 -16 7 -20 4 -4 -2 -14
5 -22 17 -22 30 -4 72 45 112 55 45 100 87 92 87 -4 0 -36 -16 -70 -35 -71
-38 -76 -24 -9 24 78 56 231 111 311 111 19 0 25 3 16 9 -11 7 -52 3 -157 -14
l-30 -5 25 15 c14 8 47 14 73 15 34 0 46 3 41 11 -5 9 1 10 22 5 20 -5 25 -4
14 3 -21 15 -6 23 21 12 13 -5 33 -13 44 -17 18 -6 17 -8 -10 -14 -18 -5 22
-8 95 -8 l125 0 -62 13 c-34 8 -70 19 -80 25 -15 9 -14 10 7 4 20 -5 23 -4 13
7 -22 23 -14 30 17 14 33 -17 54 -20 45 -5 -10 16 13 12 42 -7 19 -13 25 -14
18 -4 -6 11 -4 13 8 8 10 -4 24 -10 34 -14 11 -4 14 -3 9 6 -5 7 18 -2 51 -20
35 -20 53 -26 44 -16 -8 10 -9 17 -3 17 6 0 14 -5 17 -11 4 -6 13 -8 21 -5 7
3 22 -7 34 -21 11 -14 20 -22 20 -18 0 5 11 -2 25 -15 34 -32 31 -42 -7 -26
-18 7 -39 11 -45 9 -7 -3 -13 0 -13 7 0 6 -4 9 -10 5 -11 -7 -61 5 -56 14 6 8
-101 7 -110 -2 -8 -7 56 -37 81 -37 9 0 46 -14 83 -32 66 -31 146 -46 177 -34
27 10 -29 73 -114 128 -96 63 -206 98 -325 103 -50 2 -102 2 -116 -1z"/>
<path d="M4760 4416 c0 -2 8 -10 18 -17 15 -13 16 -12 3 4 -13 16 -21 21 -21
13z"/>
<path d="M2212 4371 c-97 -33 -178 -136 -208 -261 -18 -74 -17 -278 1 -364 27
-128 96 -242 162 -267 44 -17 92 -11 118 15 32 32 39 79 26 164 -23 148 -10
175 69 147 79 -28 149 -16 194 34 l19 21 -65 0 c-72 0 -151 20 -187 49 -25 19
-25 19 -76 -10 -58 -32 -90 -36 -140 -15 -59 25 -82 99 -65 215 10 73 39 155
47 134 2 -7 14 -2 31 14 15 14 39 31 54 39 41 21 157 40 210 34 40 -5 46 -4
43 12 -4 17 -2 17 27 2 16 -9 27 -11 24 -5 -9 14 -1 14 24 1 11 -5 29 -14 40
-20 11 -5 27 -10 36 -10 40 0 158 -79 142 -95 -3 -3 -30 6 -61 21 -122 55
-302 88 -357 66 -21 -9 -16 -11 35 -11 84 -2 147 -23 236 -82 126 -83 257
-118 324 -87 55 25 23 54 -105 93 -14 4 -52 28 -85 52 -33 25 -82 56 -108 70
-120 60 -301 80 -405 44z"/>
<path d="M5174 4350 c-32 -13 -71 -65 -107 -144 -23 -48 -50 -87 -85 -120 -29
-27 -52 -54 -52 -60 0 -6 9 -28 20 -49 25 -47 25 -68 0 -109 -24 -39 -25 -57
-5 -94 17 -34 20 -116 4 -146 -6 -11 -8 -22 -5 -25 10 -10 36 64 36 101 0 50
27 112 58 132 39 26 96 23 127 -6 l26 -24 -6 79 c-7 91 -25 125 -72 137 -17 4
-33 14 -36 22 -7 17 41 86 75 110 30 21 44 20 79 -5 17 -12 40 -19 56 -17 26
3 28 7 31 53 3 44 -1 54 -25 76 -15 15 -41 31 -58 37 l-30 10 36 1 c48 1 82
-27 98 -79 17 -56 24 -45 11 16 -13 56 -32 81 -77 100 -36 16 -68 17 -99 4z"/>
<path d="M1700 4191 c-5 -11 -10 -32 -9 -48 l1 -28 9 33 c10 35 32 42 45 15 5
-10 9 -153 9 -318 l0 -300 33 -79 c66 -159 203 -379 245 -392 27 -8 38 7 44
59 5 44 4 47 -50 100 -106 105 -242 407 -183 407 17 0 46 -60 74 -152 27 -88
47 -124 77 -144 48 -32 57 5 25 102 -11 32 -31 106 -44 164 -30 128 -33 109
-6 -30 11 -56 20 -112 20 -126 0 -51 -19 -20 -46 77 -18 66 -39 116 -59 142
-16 22 -37 49 -45 60 -26 36 -20 142 12 213 23 51 27 69 21 110 -7 53 -6 55
-27 -39 -9 -40 -23 -25 -36 41 -15 80 -38 128 -66 141 -32 14 -32 14 -44 -8z"/>
<path d="M3733 4180 c-84 -22 -108 -33 -145 -68 -30 -27 -35 -51 -17 -69 8 -8
6 -14 -9 -22 -10 -6 -22 -7 -26 -4 -3 3 -6 1 -6 -5 0 -6 15 -12 33 -14 42 -4
41 -18 -2 -33 -71 -24 -45 -51 60 -65 41 -5 94 -9 119 -9 l45 0 -40 15 c-22 8
-47 22 -55 30 -13 14 -12 14 15 4 34 -13 210 -13 270 -1 32 7 35 9 13 10 -30
1 -37 15 -14 28 18 11 36 47 36 74 0 20 4 21 42 16 38 -5 68 -27 68 -49 0 -4
-12 -14 -27 -23 -26 -14 -24 -15 52 -9 96 7 115 11 96 23 -10 6 -5 11 18 16
37 8 49 23 18 23 -12 0 -60 12 -107 27 -148 46 -394 45 -513 -2 -56 -23 -70
-4 -26 37 51 46 142 71 294 79 l130 8 -125 1 c-93 1 -143 -4 -197 -18z m-33
-139 c0 -10 9 -30 21 -45 19 -24 19 -26 2 -27 -16 0 -16 -1 2 -9 18 -8 18 -9
-6 -9 -54 -2 -86 54 -53 91 22 23 34 23 34 -1z m170 -45 c8 0 35 3 60 7 42 6
43 6 20 -7 -54 -29 -178 -28 -188 3 -3 10 6 11 44 5 27 -4 56 -8 64 -8z"/>
<path d="M3670 3980 c8 -5 20 -10 25 -10 6 0 3 5 -5 10 -8 5 -19 10 -25 10 -5
0 -3 -5 5 -10z"/>
<path d="M2345 4166 c-67 -17 -146 -58 -184 -96 -48 -48 -37 -54 26 -13 58 37
156 73 196 73 12 -1 -1 -9 -30 -19 -52 -19 -135 -62 -130 -67 2 -2 32 6 67 18
42 13 103 22 170 25 113 5 180 -7 292 -52 32 -13 58 -20 58 -16 0 15 -35 38
-108 71 -78 36 -90 52 -20 27 83 -29 84 -29 58 -13 -87 54 -298 88 -395 62z"/>
<path d="M2357 4050 c-45 -12 -141 -59 -134 -66 3 -3 15 0 27 6 12 6 24 9 28
6 3 -3 1 -6 -4 -6 -5 0 -11 -13 -12 -30 -2 -30 11 -40 23 -19 4 6 13 8 21 5 8
-3 14 1 14 9 0 19 36 55 55 55 9 0 15 -9 15 -21 0 -11 9 -34 21 -50 l20 -29
-21 0 c-12 0 -30 5 -41 10 -10 6 -19 8 -19 5 0 -3 24 -17 53 -30 57 -27 137
-33 197 -14 19 6 77 11 127 11 l93 0 -6 26 c-3 15 -19 39 -35 55 -16 15 -26
27 -22 28 5 0 -23 12 -62 26 -55 20 -94 26 -185 29 -63 2 -132 -1 -153 -6z
m333 -59 c26 -49 -1 -81 -66 -81 l-25 0 20 26 c12 15 21 37 21 50 0 30 34 33
50 5z m65 -32 c40 -35 44 -49 15 -49 -13 0 -27 14 -40 40 -11 22 -18 40 -16
40 3 0 21 -14 41 -31z m-200 -9 c46 -1 56 -3 43 -11 -21 -12 -124 -16 -155 -5
-38 12 -27 29 15 22 20 -3 64 -6 97 -6z"/>
<path d="M5250 3944 c0 -60 -31 -176 -63 -237 -25 -49 -41 -64 -103 -103 -126
-79 -185 -151 -154 -189 16 -20 33 -19 79 4 54 28 140 126 171 196 44 97 100
365 76 365 -3 0 -6 -16 -6 -36z"/>
<path d="M4105 3945 l-70 -23 85 5 c107 5 132 11 127 26 -6 20 -68 17 -142 -8z"/>
<path d="M4038 3953 c7 -3 16 -2 19 1 4 3 -2 6 -13 5 -11 0 -14 -3 -6 -6z"/>
<path d="M3973 3913 c9 -2 23 -2 30 0 6 3 -1 5 -18 5 -16 0 -22 -2 -12 -5z"/>
<path d="M3547 3855 c-22 -21 -22 -74 -1 -104 54 -77 244 -65 304 19 38 54 22
70 -73 70 -30 0 -46 4 -42 10 4 6 -11 10 -38 10 -24 0 -64 3 -89 6 -34 5 -48
2 -61 -11z"/>
<path d="M1942 3740 c0 -14 2 -19 5 -12 2 6 2 18 0 25 -3 6 -5 1 -5 -13z"/>
<path d="M3560 3312 c0 -5 14 -18 31 -31 16 -12 39 -37 51 -54 l20 -32 -6 35
c-4 21 -18 46 -36 63 -29 26 -60 36 -60 19z"/>
<path d="M3490 2827 c0 -18 27 -77 35 -77 9 0 -8 66 -21 80 -12 12 -14 12 -14
-3z"/>
<path d="M3470 2795 c0 -15 31 -77 36 -73 6 7 -22 78 -30 78 -4 0 -6 -2 -6 -5z"/>
<path d="M3607 2659 c7 -7 15 -10 18 -7 3 3 -2 9 -12 12 -14 6 -15 5 -6 -5z"/>
<path d="M3829 2653 c12 -24 31 -39 31 -25 0 5 -10 17 -21 28 -22 19 -22 19
-10 -3z"/>
<path d="M2890 2410 c0 -28 77 -88 135 -106 80 -25 276 -24 394 0 112 24 205
64 190 82 -21 25 -92 27 -200 4 -230 -48 -323 -44 -501 25 -11 5 -18 2 -18 -5z"/>
<path d="M2850 2357 c0 -20 29 -56 58 -71 34 -17 109 -26 142 -16 22 6 17 9
-35 24 -33 10 -78 31 -99 47 -43 31 -66 37 -66 16z"/>
<path d="M2610 2346 c-1 -23 81 -156 126 -206 89 -95 204 -140 359 -139 118 1
121 16 5 21 -145 7 -205 31 -289 115 -67 68 -94 80 -40 19 52 -60 23 -54 -36
6 -30 31 -70 87 -89 125 -19 37 -35 64 -36 59z"/>
<path d="M2808 2275 c-12 -28 1 -89 29 -131 26 -40 99 -81 168 -94 128 -24
319 21 380 90 l20 23 -25 -7 c-14 -4 -68 -10 -121 -13 -162 -9 -309 35 -386
116 -21 23 -41 41 -46 41 -4 0 -13 -11 -19 -25z"/>
<path d="M1013 2972 c-29 -85 -29 -92 2 -92 24 0 25 2 25 64 0 35 3 71 6 80 3
9 2 16 -2 16 -5 0 -19 -31 -31 -68z"/>
<path d="M1718 2972 c-16 -43 -28 -81 -28 -85 0 -13 51 -7 56 6 3 8 4 46 2 85
l-3 72 -27 -78z"/>
<path d="M5792 3088 c-8 -10 -62 -275 -62 -304 0 -12 53 2 61 16 12 25 51 269
45 285 -7 18 -30 19 -44 3z"/>
</g>
</svg>
